<svg width="512" height="512" viewBox="0 0 512 512" fill="none" xmlns="http://www.w3.org/2000/svg">
<path d="M168.89 327.603C168.89 322.176 164.125 317.772 158.242 317.772C152.359 317.772 147.595 322.176 147.595 327.603C147.595 333.034 152.36 337.434 158.242 337.434C164.125 337.434 168.89 333.035 168.89 327.603ZM158.242 247.964C152.372 247.964 147.595 252.372 147.595 257.795C147.595 263.215 152.372 267.627 158.242 267.627C164.113 267.627 168.894 263.215 168.894 257.795C168.894 252.372 164.113 247.964 158.242 247.964ZM168.89 187.987C168.89 182.556 164.125 178.156 158.242 178.156C152.359 178.156 147.595 182.556 147.595 187.987C147.595 193.415 152.36 197.819 158.242 197.819C164.125 197.819 168.89 193.415 168.89 187.987ZM389.987 35C335.329 35 291.018 79.309 291.023 133.969C291.023 188.627 335.333 232.937 389.991 232.937C444.649 232.937 488.956 188.627 488.956 133.969C488.896 79.3372 444.623 35.0622 389.987 35ZM389.528 126.889C406.533 126.894 420.752 139.811 422.376 156.736C423.999 173.667 412.497 189.055 395.803 192.285V201.541C395.803 205.423 392.657 208.569 388.775 208.569C384.893 208.569 381.748 205.423 381.748 201.541V191.956C366.96 188.352 356.547 175.113 356.528 159.894C356.559 158.051 357.314 156.293 358.628 155.001C359.943 153.708 361.712 152.984 363.556 152.984C365.399 152.984 367.169 153.708 368.483 155.001C369.798 156.293 370.552 158.051 370.583 159.894C370.583 170.357 379.066 178.838 389.528 178.838C399.99 178.838 408.473 170.357 408.473 159.894C408.473 149.427 399.99 140.945 389.528 140.945C372.818 140.945 358.748 128.454 356.763 111.866C354.78 95.2744 365.508 79.819 381.748 75.8776V67.015C381.779 65.1718 382.533 63.4146 383.848 62.1221C385.162 60.8297 386.932 60.1054 388.775 60.1054C390.619 60.1054 392.388 60.8297 393.703 62.1221C395.017 63.4146 395.772 65.1718 395.803 67.015V75.5484C411.308 78.5722 422.509 92.1482 422.528 107.945C422.497 109.788 421.743 111.545 420.428 112.838C419.114 114.13 417.344 114.855 415.501 114.855C413.657 114.855 411.887 114.13 410.573 112.838C409.258 111.545 408.504 109.788 408.473 107.945C408.461 97.6115 400.171 89.1876 389.834 89.0149C389.269 89.1052 388.695 89.1237 388.125 89.0702C377.967 89.8271 370.226 98.4779 370.606 108.659C370.983 118.834 379.343 126.89 389.532 126.89L389.528 126.889ZM276.567 472.399C270.774 466.643 266.174 459.799 263.034 452.26C259.893 444.721 258.273 436.637 258.266 428.47V400.317H23.3481V428.587C23.4656 455.121 44.9957 476.58 71.5283 476.615H281.326C279.603 475.372 278.009 473.959 276.568 472.398L276.567 472.399Z" fill="#44CA6A"/>
<path d="M294.909 194.513H209.795C207.952 194.482 206.195 193.728 204.903 192.413C203.61 191.099 202.886 189.329 202.886 187.485C202.886 185.642 203.61 183.872 204.903 182.558C206.195 181.243 207.952 180.489 209.795 180.458H287.208C280.415 165.736 276.92 149.707 276.968 133.494C276.991 125.663 277.803 117.855 279.391 110.184H90.2626L88.4033 386.262H265.654C266.537 386.226 267.419 386.374 268.242 386.695C269.066 387.017 269.815 387.505 270.441 388.13C271.067 388.754 271.557 389.502 271.88 390.325C272.204 391.148 272.353 392.029 272.32 392.913V428.478C272.45 455.07 294.018 476.568 320.611 476.616H320.768C347.258 476.559 368.697 455.074 368.697 428.588V244.979C353.58 242.117 339.22 236.155 326.52 227.469C313.821 218.783 303.058 207.562 294.909 194.512V194.513ZM158.242 351.493C144.623 351.493 133.541 340.776 133.541 327.603C133.541 314.434 144.623 303.716 158.242 303.716C171.862 303.716 182.949 314.434 182.949 327.603C182.949 340.776 171.865 351.493 158.242 351.493ZM158.242 281.681C144.623 281.681 133.541 270.968 133.541 257.795C133.541 244.624 144.623 233.909 158.242 233.909C171.862 233.909 182.949 244.623 182.949 257.795C182.949 270.964 171.865 281.681 158.242 281.681ZM158.242 211.874C144.623 211.874 133.541 201.156 133.541 187.987C133.541 174.816 144.623 164.097 158.242 164.097C171.862 164.097 182.949 174.811 182.949 187.983C182.949 201.156 171.865 211.874 158.242 211.874ZM316.87 335.062H209.795C207.952 335.031 206.195 334.277 204.903 332.962C203.61 331.648 202.886 329.878 202.886 328.034C202.886 326.191 203.61 324.421 204.903 323.107C206.195 321.792 207.952 321.038 209.795 321.007H316.87C318.713 321.038 320.47 321.792 321.762 323.107C323.055 324.421 323.779 326.191 323.779 328.034C323.779 329.878 323.055 331.648 321.762 332.962C320.47 334.277 318.713 335.031 316.87 335.062ZM323.897 257.76C323.897 261.642 320.752 264.787 316.87 264.787H209.795C207.952 264.756 206.195 264.002 204.903 262.688C203.61 261.373 202.886 259.603 202.886 257.76C202.886 255.916 203.61 254.147 204.903 252.832C206.195 251.518 207.952 250.764 209.795 250.733H316.87C320.752 250.733 323.897 253.882 323.897 257.76Z" fill="#1E2838"/>
</svg>
